<?xml version="1.0" encoding="UTF-8"?>
<svg width="1398px" height="279px" viewBox="0 0 1398 279" version="1.1" xmlns="http://www.w3.org/2000/svg" xmlns:xlink="http://www.w3.org/1999/xlink">
    <!-- Generator: Sketch 59.1 (86144) - https://sketch.com -->
    <title>Pattern</title>
    <desc>Created with Sketch.</desc>
    <defs>
        <rect id="path-1" x="0" y="0" width="1398" height="279"></rect>
    </defs>
    <g id="All-pages" stroke="none" stroke-width="1" fill="none" fill-rule="evenodd">
        <g id="Pattern">
            <mask id="mask-2" fill="white">
                <use xlink:href="#path-1"></use>
            </mask>
            <use id="Mask" fill="#D0E9FF" fill-rule="nonzero" xlink:href="#path-1"></use>
            <g id="Group-49" mask="url(#mask-2)" fill="#C0E2FF">
                <g transform="translate(65.000000, 0.000000)">
                    <circle id="Oval-Copy-8" cx="1246" cy="136" r="19"></circle>
                    <polygon id="Rectangle-Copy-24" transform="translate(1001.301060, 192.327346) rotate(105.000000) translate(-1001.301060, -192.327346) " points="989.938575 164 1013.60212 164.430658 1012.66355 220.654693 989 220.224035"></polygon>
                    <path d="M1165.35198,206.450988 C1165.34778,206.452782 1165.33938,206.45637 1165.33098,206.459957 C1153.29564,212.074899 1141.5178,218.323777 1130.1084,225.18168 C1130.04561,225.338315 1129.92001,225.651585 1130.07262,225.71372 C1136.74172,238.996889 1152.42173,274.898064 1153.24198,276.871863 C1153.33478,277.091851 1153.48738,277.153985 1153.70578,277.060703 L1174.13028,268.978413 C1174.34689,268.8809 1174.40848,268.727277 1174.31867,268.508508 C1170.24746,259.016139 1164.59855,245.419539 1160.52734,235.92717 C1160.43753,235.708401 1160.50033,235.551766 1160.71573,235.457265 L1174.42998,229.075288 C1174.43896,229.078943 1174.4419,229.097659 1174.45151,229.091059 L1177.31925,227.728863 L1195.30886,219.173765 C1195.52726,219.080483 1195.59005,218.923848 1195.49725,218.70386 C1191.42903,209.21271 1185.78013,195.61611 1181.70891,186.123741 C1181.6191,185.904972 1181.6819,185.748337 1181.8961,185.656848 L1214.47069,170.49265 C1214.47069,170.49265 1208.47894,156.735433 1203.23757,148 L1186.51135,156.65954 C1174.47301,162.273263 1162.69638,168.51913 1151.28877,175.381263 C1151.22718,175.534886 1151.10159,175.848156 1151.25719,175.911509 C1154.66438,182.701805 1160.42212,195.393158 1165.35198,206.450988" id="Fill-1" transform="translate(1172.235346, 212.551314) rotate(107.000000) translate(-1172.235346, -212.551314) "></path>
                    <path d="M792.35198,178.450988 C792.34778,178.452782 792.33938,178.45637 792.330981,178.459957 C780.295636,184.074899 768.517801,190.323777 757.108404,197.18168 C757.045607,197.338315 756.920013,197.651585 757.072618,197.71372 C763.74172,210.996889 779.421735,246.898064 780.241978,248.871863 C780.334779,249.091851 780.487384,249.153985 780.705778,249.060703 L801.13028,240.978413 C801.34689,240.8809 801.408479,240.727277 801.318671,240.508508 C797.247457,231.016139 791.598552,217.419539 787.527338,207.92717 C787.43753,207.708401 787.500327,207.551766 787.715729,207.457265 L801.429983,201.075288 C801.43896,201.078943 801.441899,201.097659 801.451506,201.091059 L804.319253,199.728863 L822.308862,191.173765 C822.527257,191.080483 822.590054,190.923848 822.497253,190.70386 C818.429031,181.21271 812.780127,167.61611 808.708913,158.123741 C808.619105,157.904972 808.681902,157.748337 808.896096,157.656848 L841.470692,142.49265 C841.470692,142.49265 835.47894,128.735433 830.237567,120 L813.511348,128.65954 C801.473011,134.273263 789.696384,140.51913 778.288771,147.381263 C778.227182,147.534886 778.101588,147.848156 778.257185,147.911509 C781.664383,154.701805 787.42212,167.393158 792.35198,178.450988" id="Fill-1-Copy-3" transform="translate(799.235346, 184.551314) rotate(214.000000) translate(-799.235346, -184.551314) "></path>
                    <path d="M1076.27878,93.8715261 C1077.49533,108.240924 1081.48594,121.565388 1081.48594,121.565388 L1114.6267,115.046298 C1114.6267,115.046298 1111.38136,99.0547564 1110.52377,93.6851107 C1107.98343,77.7840218 1115.08465,64.9751443 1127.15188,62.6014109 C1139.22091,60.2273232 1149.19483,68.0268525 1153.24831,83.6340179 C1153.2539,83.6534094 1158.17999,106.478969 1158.17999,106.478969 L1191.31895,99.9602339 L1186.65057,75.6551517 C1180.84302,45.4191987 1154.06997,24.0353402 1123.73985,30.0015503 C1093.40973,35.9677603 1073.37622,59.6047648 1076.27878,93.8715261" id="Fill-1-Copy-15" transform="translate(1133.659477, 75.282694) rotate(145.000000) translate(-1133.659477, -75.282694) "></path>
                    <polygon id="Rectangle-Copy-29" transform="translate(53.301290, 66.327995) rotate(116.000000) translate(-53.301290, -66.327995) " points="41.9397976 38 65.6025803 38.4301438 64.6627827 94.6559892 41 94.2258454"></polygon>
                    <polygon id="Rectangle-Copy-30" transform="translate(473.301290, 198.327995) rotate(42.000000) translate(-473.301290, -198.327995) " points="461.939798 170 485.60258 170.430144 484.662783 226.655989 461 226.225845"></polygon>
                    <circle id="Oval-Copy-14" cx="193.5" cy="150.5" r="18.5"></circle>
                    <path d="M46.2229704,155.254127 C32.989406,157.797575 21,162.837783 21,162.837783 L30.3208926,193.248393 C30.3208926,193.248393 44.8621606,188.645836 49.7676864,187.317854 C64.2943069,183.38461 76.8965953,188.785997 80.2905223,199.85912 C83.6849558,210.933895 77.4188834,221.039759 63.3143749,226.361857 C63.2969052,226.368991 42.5703259,233.213743 42.5703259,233.213743 L51.8907121,263.622701 L74.0175683,256.874844 C101.54377,248.480391 118.779717,221.309459 110.249323,193.477951 C101.718929,165.646444 77.7809637,149.187416 46.2229704,155.254127" id="Fill-1-Copy-32" transform="translate(66.721723, 208.811350) rotate(151.000000) translate(-66.721723, -208.811350) "></path>
                    <path d="M572.22297,11.2541269 C558.989406,13.7975751 547,18.8377827 547,18.8377827 L556.320893,49.2483926 C556.320893,49.2483926 570.862161,44.6458362 575.767686,43.317854 C590.294307,39.3846104 602.896595,44.7859966 606.290522,55.85912 C609.684956,66.9338955 603.418883,77.0397585 589.314375,82.3618567 C589.296905,82.368991 568.570326,89.2137432 568.570326,89.2137432 L577.890712,119.622701 L600.017568,112.874844 C627.54377,104.480391 644.779717,77.3094588 636.249323,49.4779514 C627.718929,21.646444 603.780964,5.18741575 572.22297,11.2541269" id="Fill-1-Copy-33" transform="translate(592.721723, 64.811350) rotate(259.000000) translate(-592.721723, -64.811350) "></path>
                    <path d="M244.042059,69.8287492 C244.044814,69.832689 244.050323,69.8405684 244.055833,69.8484478 C252.43482,81.0354057 261.405067,91.8195294 270.916773,102.091892 C271.09061,102.122656 271.438284,102.184185 271.468282,102.013433 C283.577755,92.2602485 316.821373,68.316583 318.658241,67.043297 C318.862665,66.8999607 318.892663,66.729208 318.749412,66.5243426 L306.007998,47.2259998 C305.860815,47.0238909 305.690321,46.993718 305.486486,47.1337061 C296.680405,53.3875647 284.02675,62.1572309 275.220669,68.4110894 C275.016834,68.5510776 274.842997,68.5203131 274.699157,68.3187958 L265.167909,55.5677563 C265.169674,55.557712 265.188154,55.5506259 265.179301,55.5421548 L263.157967,52.8818231 L250.46782,36.1955028 C250.324569,35.9906375 250.150732,35.9598729 249.946309,36.1032092 C241.140816,42.3537197 228.487161,51.1233858 219.681079,57.3772444 C219.477244,57.5172326 219.303407,57.4864681 219.162911,57.2855424 L196.518331,27 C196.518331,27 183.775799,36.1578432 176,43.4536292 L188.519587,58.8151944 C196.897985,70.0055004 205.86489,80.7890325 215.380527,91.0586384 C215.551021,91.0888113 215.898695,91.1503404 215.929281,90.9762396 C222.120032,85.9925352 233.82479,77.3069493 244.042059,69.8287492" id="Fill-1-Copy-4" transform="translate(247.419082, 64.564184) rotate(25.000000) translate(-247.419082, -64.564184) "></path>
                    <polygon id="Rectangle-Copy-79" transform="translate(952.477909, 76.470243) rotate(28.000000) translate(-952.477909, -76.470243) " points="934.011614 58.0116149 970.955817 58 970.944203 94.9288704 934 94.9404853"></polygon>
                    <polygon id="Rectangle-Copy-80" transform="translate(346.477836, 208.467974) rotate(-22.000000) translate(-346.477836, -208.467974) " points="328 190 364.946398 190.009273 364.955672 226.935948 328.009274 226.926675"></polygon>
                </g>
            </g>
        </g>
    </g>
</svg>